{
	"asset":{
		"generator":"Khronos glTF Blender I/O v4.5.48",
		"version":"2.0"
	},
	"scene":0,
	"scenes":[
		{
			"name":"Scene",
			"nodes":[
				0,
				1
			]
		}
	],
	"nodes":[
		{
			"mesh":0,
			"name":"Cube",
			"scale":[
				200,
				1,
				200
			]
		},
		{
			"mesh":1,
			"name":"Cube.001",
			"scale":[
				30,
				50,
				200
			],
			"translation":[
				170,
				52,
				0
			]
		}
	],
	"materials":[
		{
			"doubleSided":true,
			"name":"Material",
			"pbrMetallicRoughness":{
				"baseColorFactor":[
					0.800000011920929,
					0.800000011920929,
					0.800000011920929,
					1
				],
				"metallicFactor":0,
				"roughnessFactor":0.5
			}
		}
	],
	"meshes":[
		{
			"name":"Cube",
			"primitives":[
				{
					"attributes":{
						"POSITION":0,
						"NORMAL":1,
						"TEXCOORD_0":2
					},
					"indices":3,
					"material":0
				}
			]
		},
		{
			"name":"Cube.001",
			"primitives":[
				{
					"attributes":{
						"POSITION":4,
						"NORMAL":5,
						"TEXCOORD_0":6
					},
					"indices":7
				}
			]
		}
	],
	"accessors":[
		{
			"bufferView":0,
			"componentType":5126,
			"count":8387,
			"max":[
				1,
				1,
				1
			],
			"min":[
				-1,
				-1,
				-1
			],
			"type":"VEC3"
		},
		{
			"bufferView":1,
			"componentType":5126,
			"count":8387,
			"type":"VEC3"
		},
		{
			"bufferView":2,
			"componentType":5126,
			"count":8387,
			"type":"VEC2"
		},
		{
			"bufferView":3,
			"componentType":5123,
			"count":47832,
			"type":"SCALAR"
		},
		{
			"bufferView":4,
			"componentType":5126,
			"count":17308,
			"max":[
				1,
				1,
				1
			],
			"min":[
				-5.930574893951416,
				-1.0027155876159668,
				-1.0324360132217407
			],
			"type":"VEC3"
		},
		{
			"bufferView":5,
			"componentType":5126,
			"count":17308,
			"type":"VEC3"
		},
		{
			"bufferView":6,
			"componentType":5126,
			"count":17308,
			"type":"VEC2"
		},
		{
			"bufferView":7,
			"componentType":5123,
			"count":50472,
			"type":"SCALAR"
		}
	],
	"bufferViews":[
		{
			"buffer":0,
			"byteLength":100644,
			"byteOffset":0,
			"target":34962
		},
		{
			"buffer":0,
			"byteLength":100644,
			"byteOffset":100644,
			"target":34962
		},
		{
			"buffer":0,
			"byteLength":67096,
			"byteOffset":201288,
			"target":34962
		},
		{
			"buffer":0,
			"byteLength":95664,
			"byteOffset":268384,
			"target":34963
		},
		{
			"buffer":0,
			"byteLength":207696,
			"byteOffset":364048,
			"target":34962
		},
		{
			"buffer":0,
			"byteLength":207696,
			"byteOffset":571744,
			"target":34962
		},
		{
			"buffer":0,
			"byteLength":138464,
			"byteOffset":779440,
			"target":34962
		},
		{
			"buffer":0,
			"byteLength":100944,
			"byteOffset":917904,
			"target":34963
		}
	],
	"buffers":[
		{
			"byteLength":1018848,
			"uri":"Cliffs-7475fc760e4b8f9119c75008a5867009.bin"
		}
	]
}
