{
	"asset":{
		"generator":"Khronos glTF Blender I/O v4.5.48",
		"version":"2.0"
	},
	"scene":0,
	"scenes":[
		{
			"name":"Scene",
			"nodes":[
				0
			]
		}
	],
	"nodes":[
		{
			"mesh":0,
			"name":"Cube",
			"scale":[
				10,
				0.19999998807907104,
				10
			]
		}
	],
	"materials":[
		{
			"doubleSided":true,
			"name":"Material.001",
			"pbrMetallicRoughness":{
				"baseColorFactor":[
					0.8002511262893677,
					0.1498924195766449,
					0.1055242121219635,
					1
				],
				"metallicFactor":0.9222221970558167,
				"roughnessFactor":0.5
			}
		}
	],
	"meshes":[
		{
			"name":"Cube.001",
			"primitives":[
				{
					"attributes":{
						"POSITION":0,
						"NORMAL":1,
						"TEXCOORD_0":2
					},
					"indices":3,
					"material":0
				}
			]
		}
	],
	"accessors":[
		{
			"bufferView":0,
			"componentType":5126,
			"count":2115,
			"max":[
				1,
				4.962745189666748,
				1
			],
			"min":[
				-1,
				-1.028725504875183,
				-1
			],
			"type":"VEC3"
		},
		{
			"bufferView":1,
			"componentType":5126,
			"count":2115,
			"type":"VEC3"
		},
		{
			"bufferView":2,
			"componentType":5126,
			"count":2115,
			"type":"VEC2"
		},
		{
			"bufferView":3,
			"componentType":5123,
			"count":6546,
			"type":"SCALAR"
		}
	],
	"bufferViews":[
		{
			"buffer":0,
			"byteLength":25380,
			"byteOffset":0,
			"target":34962
		},
		{
			"buffer":0,
			"byteLength":25380,
			"byteOffset":25380,
			"target":34962
		},
		{
			"buffer":0,
			"byteLength":16920,
			"byteOffset":50760,
			"target":34962
		},
		{
			"buffer":0,
			"byteLength":13092,
			"byteOffset":67680,
			"target":34963
		}
	],
	"buffers":[
		{
			"byteLength":80772,
			"uri":"Ground_default-1eacbc30d5d96db82dd4a94e83aa62a9.bin"
		}
	]
}
