{
	"asset":{
		"generator":"Khronos glTF Blender I/O v4.5.48",
		"version":"2.0"
	},
	"extensionsUsed":[
		"KHR_lights_punctual"
	],
	"extensionsRequired":[
		"KHR_lights_punctual"
	],
	"extensions":{
		"KHR_lights_punctual":{
			"lights":[
				{
					"color":[
						1,
						1,
						1
					],
					"intensity":29.364084571942985,
					"type":"point",
					"name":"Point"
				},
				{
					"color":[
						1,
						1,
						1
					],
					"intensity":29.364084571942985,
					"type":"point",
					"name":"Point.001"
				}
			]
		}
	},
	"scene":0,
	"scenes":[
		{
			"name":"Scene",
			"nodes":[
				0,
				1,
				2,
				3,
				4
			]
		}
	],
	"nodes":[
		{
			"mesh":0,
			"name":"Sphere",
			"scale":[
				1.0857536792755127,
				1.0857536792755127,
				1.0857536792755127
			],
			"translation":[
				0,
				6.18879508972168,
				0
			]
		},
		{
			"extensions":{
				"KHR_lights_punctual":{
					"light":0
				}
			},
			"name":"Point",
			"rotation":[
				-0.7071068286895752,
				0,
				0,
				0.7071068286895752
			],
			"translation":[
				-1.6999950408935547,
				3.226902484893799,
				-1.4547978639602661
			]
		},
		{
			"extensions":{
				"KHR_lights_punctual":{
					"light":1
				}
			},
			"name":"Point.001",
			"rotation":[
				-0.7071068286895752,
				0,
				0,
				0.7071068286895752
			],
			"translation":[
				4.163878440856934,
				-1.6400094032287598,
				-2.169355869293213
			]
		},
		{
			"mesh":1,
			"name":"Cube.001",
			"scale":[
				0.6246770024299622,
				1.506225347518921,
				1.1746004819869995
			],
			"translation":[
				0.131504088640213,
				3.5163261890411377,
				0.03592929244041443
			]
		},
		{
			"mesh":2,
			"name":"Sphere.001",
			"scale":[
				0.5174183249473572,
				0.5174183249473572,
				0.5174183249473572
			],
			"translation":[
				0,
				4.5586652755737305,
				-2.073190689086914
			]
		}
	],
	"materials":[
		{
			"doubleSided":true,
			"name":"Material.001",
			"pbrMetallicRoughness":{
				"baseColorFactor":[
					0.0085672028362751,
					0.7991040349006653,
					0,
					1
				],
				"metallicFactor":0,
				"roughnessFactor":0.5
			}
		},
		{
			"doubleSided":true,
			"name":"Material.003",
			"pbrMetallicRoughness":{
				"baseColorFactor":[
					0.0085672028362751,
					0.7991040349006653,
					0,
					1
				],
				"metallicFactor":0,
				"roughnessFactor":0.5
			}
		},
		{
			"doubleSided":true,
			"name":"Material.004",
			"pbrMetallicRoughness":{
				"baseColorFactor":[
					0.22320137917995453,
					0.2007017433643341,
					0,
					1
				],
				"metallicFactor":0,
				"roughnessFactor":0.5
			}
		},
		{
			"doubleSided":true,
			"name":"Material.006",
			"pbrMetallicRoughness":{
				"baseColorFactor":[
					0.9349044561386108,
					0.7496623992919922,
					0,
					1
				],
				"metallicFactor":0,
				"roughnessFactor":0.5
			}
		}
	],
	"meshes":[
		{
			"name":"Sphere",
			"primitives":[
				{
					"attributes":{
						"POSITION":0,
						"NORMAL":1,
						"TEXCOORD_0":2,
						"TANGENT":3
					},
					"indices":4,
					"material":0
				}
			]
		},
		{
			"name":"Cube.003",
			"primitives":[
				{
					"attributes":{
						"POSITION":5,
						"NORMAL":6,
						"TEXCOORD_0":7,
						"TANGENT":8
					},
					"indices":9,
					"material":1
				}
			]
		},
		{
			"name":"Sphere.001",
			"primitives":[
				{
					"attributes":{
						"POSITION":10,
						"NORMAL":11,
						"TEXCOORD_0":12
					},
					"indices":13,
					"material":2
				},
				{
					"attributes":{
						"POSITION":14,
						"NORMAL":15,
						"TEXCOORD_0":16
					},
					"indices":17,
					"material":3
				}
			]
		}
	],
	"accessors":[
		{
			"bufferView":0,
			"componentType":5126,
			"count":1984,
			"max":[
				0.9999997019767761,
				1,
				0.9999993443489075
			],
			"min":[
				-0.9999990463256836,
				-1,
				-1
			],
			"type":"VEC3"
		},
		{
			"bufferView":1,
			"componentType":5126,
			"count":1984,
			"type":"VEC3"
		},
		{
			"bufferView":2,
			"componentType":5126,
			"count":1984,
			"type":"VEC2"
		},
		{
			"bufferView":3,
			"componentType":5126,
			"count":1984,
			"type":"VEC4"
		},
		{
			"bufferView":4,
			"componentType":5123,
			"count":2880,
			"type":"SCALAR"
		},
		{
			"bufferView":5,
			"componentType":5126,
			"count":2904,
			"max":[
				1.1254498958587646,
				1.1534689664840698,
				1.3070683479309082
			],
			"min":[
				-1.341455340385437,
				-1.1846247911453247,
				-1.212929606437683
			],
			"type":"VEC3"
		},
		{
			"bufferView":6,
			"componentType":5126,
			"count":2904,
			"type":"VEC3"
		},
		{
			"bufferView":7,
			"componentType":5126,
			"count":2904,
			"type":"VEC2"
		},
		{
			"bufferView":8,
			"componentType":5126,
			"count":2904,
			"type":"VEC4"
		},
		{
			"bufferView":9,
			"componentType":5123,
			"count":4356,
			"type":"SCALAR"
		},
		{
			"bufferView":10,
			"componentType":5126,
			"count":1984,
			"max":[
				0.9999997019767761,
				1,
				0.9999993443489075
			],
			"min":[
				-0.9999990463256836,
				-1,
				-1
			],
			"type":"VEC3"
		},
		{
			"bufferView":11,
			"componentType":5126,
			"count":1984,
			"type":"VEC3"
		},
		{
			"bufferView":12,
			"componentType":5126,
			"count":1984,
			"type":"VEC2"
		},
		{
			"bufferView":13,
			"componentType":5123,
			"count":2880,
			"type":"SCALAR"
		},
		{
			"bufferView":14,
			"componentType":5126,
			"count":192,
			"max":[
				0.9991915822029114,
				0.9991917014122009,
				0
			],
			"min":[
				-0.9991915822029114,
				-0.9991917014122009,
				-5.798016548156738
			],
			"type":"VEC3"
		},
		{
			"bufferView":15,
			"componentType":5126,
			"count":192,
			"type":"VEC3"
		},
		{
			"bufferView":16,
			"componentType":5126,
			"count":192,
			"type":"VEC2"
		},
		{
			"bufferView":17,
			"componentType":5123,
			"count":372,
			"type":"SCALAR"
		}
	],
	"bufferViews":[
		{
			"buffer":0,
			"byteLength":23808,
			"byteOffset":0,
			"target":34962
		},
		{
			"buffer":0,
			"byteLength":23808,
			"byteOffset":23808,
			"target":34962
		},
		{
			"buffer":0,
			"byteLength":15872,
			"byteOffset":47616,
			"target":34962
		},
		{
			"buffer":0,
			"byteLength":31744,
			"byteOffset":63488,
			"target":34962
		},
		{
			"buffer":0,
			"byteLength":5760,
			"byteOffset":95232,
			"target":34963
		},
		{
			"buffer":0,
			"byteLength":34848,
			"byteOffset":100992,
			"target":34962
		},
		{
			"buffer":0,
			"byteLength":34848,
			"byteOffset":135840,
			"target":34962
		},
		{
			"buffer":0,
			"byteLength":23232,
			"byteOffset":170688,
			"target":34962
		},
		{
			"buffer":0,
			"byteLength":46464,
			"byteOffset":193920,
			"target":34962
		},
		{
			"buffer":0,
			"byteLength":8712,
			"byteOffset":240384,
			"target":34963
		},
		{
			"buffer":0,
			"byteLength":23808,
			"byteOffset":249096,
			"target":34962
		},
		{
			"buffer":0,
			"byteLength":23808,
			"byteOffset":272904,
			"target":34962
		},
		{
			"buffer":0,
			"byteLength":15872,
			"byteOffset":296712,
			"target":34962
		},
		{
			"buffer":0,
			"byteLength":5760,
			"byteOffset":312584,
			"target":34963
		},
		{
			"buffer":0,
			"byteLength":2304,
			"byteOffset":318344,
			"target":34962
		},
		{
			"buffer":0,
			"byteLength":2304,
			"byteOffset":320648,
			"target":34962
		},
		{
			"buffer":0,
			"byteLength":1536,
			"byteOffset":322952,
			"target":34962
		},
		{
			"buffer":0,
			"byteLength":744,
			"byteOffset":324488,
			"target":34963
		}
	],
	"buffers":[
		{
			"byteLength":325232,
			"uri":"player_speed-cb8fb37d7afa00173034c2fbf7f25e62.bin"
		}
	]
}
